#!OML:ASF F:\VICON\USERDATA\INSTALL\rory3\rory3.ASF
:FULLY-SPECIFIED
:DEGREES
2120
root -1.06803 17.8636 0.351038 12.485 -20.1953 5.08979
lowerback 8.32351 -6.55493 -3.75793
upperback 3.99953 -8.98654 6.20041
thorax 1.16582 -4.72471 9.17696
lowerneck -19.8996 -5.50796 -13.5833
upperneck 34.3425 -5.29755 4.86919
head 16.1732 -3.40556 3.39274
rclavicle 2.54444e-014 -3.65764e-014
rhumerus 5.9893 42.3759 -49.9258
rradius 73.5882
rwrist 51.9212
rhand -49.319 -22.799
rfingers 7.12502
rthumb -21.9354 -51.5754
lclavicle 2.54444e-014 -3.65764e-014
lhumerus 90.145 -51.755 23.5533
lradius 39.0842
lwrist -43.5861
lhand -45.3783 48.9703
lfingers 7.12502
lthumb -18.1476 78.1437
rfemur -35.1826 12.2694 5.47243
rtibia 32.7408
rfoot -7.58251 4.20354
rtoes 1.24842
lfemur -14.8289 9.49768 -20.9903
ltibia 18.8104
lfoot -9.59885 29.008
ltoes -16.5724
2121
root -1.06546 17.8633 0.367645 12.4775 -20.9782 5.21996
lowerback 8.2684 -6.72713 -3.86607
upperback 3.97304 -9.22702 6.28087
thorax 1.24668 -4.85471 9.3235
lowerneck -19.8561 -5.16276 -13.5483
upperneck 34.2405 -4.71001 4.61992
head 16.0274 -3.19449 3.39241
rclavicle -2.94201e-014 -7.95139e-015
rhumerus 7.19947 42.4278 -49.7199
rradius 72.8993
rwrist 51.5186
rhand -49.6259 -23.0168
rfingers 7.12502
rthumb -22.23 -51.7584
lclavicle -2.94201e-014 -7.95139e-015
lhumerus 90.145 -51.755 23.5533
lradius 39.0842
lwrist -43.5861
lhand -45.3783 48.9703
lfingers 7.12502
lthumb -18.1476 78.1437
rfemur -35.4214 12.6814 5.1962
rtibia 32.7087
rfoot -7.42545 4.45057
rtoes 1.04259
lfemur -14.7477 9.87907 -21.2518
ltibia 18.8697
lfoot -9.70514 29.2598
ltoes -16.7093
2122
root -1.0612 17.8673 0.390836 12.5575 -21.7472 5.26444
lowerback 8.02404 -6.91238 -3.72771
upperback 3.95742 -9.46573 6.32568
thorax 1.39481 -4.97862 9.26424
lowerneck -19.7949 -4.75647 -13.5366
upperneck 34.135 -4.06068 4.46064
head 15.8737 -2.94759 3.44682
rclavicle 6.12257e-014 -4.05521e-014
rhumerus 7.90458 42.3839 -49.788
rradius 72.7854
rwrist 51.1595
rhand -49.6774 -22.6054
rfingers 7.12502
rthumb -22.2795 -51.3411
lclavicle 6.12257e-014 -4.05521e-014
lhumerus 90.145 -51.755 23.5533
lradius 39.0842
lwrist -43.5861
lhand -45.3783 48.9703
lfingers 7.12502
lthumb -18.1476 78.1437
rfemur -35.6906 13.0384 4.98914
rtibia 32.7161
rfoot -7.33798 4.76163
rtoes 1.45099
lfemur -14.708 10.2461 -21.4369
ltibia 18.9095
lfoot -9.72622 29.5214
ltoes -17.1393
2123
root -1.05999 17.8687 0.407035 12.4812 -22.5214 5.32976
lowerback 8.42203 -6.99955 -3.99193
upperback 3.74714 -9.60172 6.63051
thorax 1.08518 -5.04764 9.82052
lowerneck -19.8635 -4.34773 -13.7063
upperneck 34.2449 -3.22952 4.03895
head 15.8422 -2.69358 3.45467
rclavicle 3.97569e-015 -4.77083e-014
rhumerus 8.36327 42.7153 -49.464
rradius 72.8508
rwrist 51.1447
rhand -49.5716 -22.9347
rfingers 7.12502
rthumb -22.1778 -51.6825
lclavicle 3.97569e-015 -4.77083e-014
lhumerus 90.145 -51.755 23.5533
lradius 39.0842
lwrist -43.5861
lhand -45.3783 48.9703
lfingers 7.12502
lthumb -18.1476 78.1437
rfemur -35.8386 13.4505 4.81341
rtibia 32.7373
rfoot -7.23014 5.06304
rtoes 1.7446
lfemur -14.5184 10.5409 -21.5826
ltibia 18.9358
lfoot -9.23052 29.8158
ltoes -18.6198
2124
root -1.06646 17.8628 0.410187 12.3468 -23.1571 5.62243
lowerback 8.59067 -7.08252 -4.32255
upperback 3.7512 -9.74263 6.67527
thorax 1.09311 -5.13027 10.0819
lowerneck -19.9703 -4.0192 -13.5809
upperneck 34.0296 -2.66236 3.76593
head 15.6858 -2.47146 3.41762
rclavicle -5.725e-014 -3.18055e-015
rhumerus 9.04044 42.6203 -49.4631
rradius 72.4942
rwrist 51.0545
rhand -49.6056 -22.476
rfingers 7.12502
rthumb -22.2105 -51.2199
lclavicle -5.725e-014 -3.18055e-015
lhumerus 90.145 -51.755 23.5533
lradius 39.0842
lwrist -43.5861
lhand -45.3783 48.9703
lfingers 7.12502
lthumb -18.1476 78.1437
rfemur -36.0603 13.8286 4.42268
rtibia 32.7691
rfoot -7.09589 5.18547
rtoes 1.92797
lfemur -14.4088 10.8052 -21.8971
ltibia 18.9141
lfoot -8.42988 29.9061
ltoes -20.4647
2125
root -1.07216 17.8607 0.422026 12.2853 -23.7846 5.8083
lowerback 8.44238 -7.08074 -4.19083
upperback 3.91273 -9.73286 6.47681
thorax 1.28126 -5.12831 9.75622
lowerneck -20.269 -3.81791 -13.094
upperneck 33.8986 -2.45665 3.67342
head 15.6487 -2.32731 3.33057
rclavicle 9.06458e-014 5.56597e-015
rhumerus 9.22861 41.897 -50.0947
rradius 72.1043
rwrist 51.0125
rhand -49.4622 -21.9522
rfingers 7.12502
rthumb -22.0729 -50.7124
lclavicle 9.06458e-014 5.56597e-015
lhumerus 90.145 -51.755 23.5533
lradius 39.0842
lwrist -43.5861
lhand -45.3783 48.9703
lfingers 7.12502
lthumb -18.1476 78.1437
rfemur -36.2678 14.1804 4.13364
rtibia 32.7999
rfoot -6.97828 5.3548
rtoes 1.82664
lfemur -14.2875 11.1267 -22.1239
ltibia 18.8592
lfoot -8.23789 29.9369
ltoes -20.9221
2126
root -1.07021 17.8616 0.446121 12.2281 -24.5766 5.84918
lowerback 8.37046 -6.90564 -4.00813
upperback 4.07939 -9.49207 6.43721
thorax 1.409 -5.01165 9.5831
lowerneck -20.8258 -3.73639 -12.7171
upperneck 33.9934 -2.32792 3.51746
head 15.7966 -2.24661 3.22482
rclavicle 9.54166e-015 3.4191e-014
rhumerus 9.58226 39.8711 -50.8712
rradius 76.3975
rwrist 29.0089
rhand -38.8377 8.64857
rfingers 7.12502
rthumb -11.8472 -20.9963
lclavicle 9.54166e-015 3.4191e-014
lhumerus 90.145 -51.755 23.5533
lradius 39.0842
lwrist -43.5861
lhand -45.3783 48.9703
lfingers 7.12502
lthumb -18.1476 78.1437
rfemur -36.4129 14.5762 3.97422
rtibia 32.8208
rfoot -6.88148 5.70066
rtoes 1.76899
lfemur -14.0294 11.0852 -22.2058
ltibia 18.8152
lfoot -8.60686 30.5123
ltoes -20.4165
2127
root -1.06956 17.8643 0.471801 12.2271 -25.3394 5.86507
lowerback 8.284 -6.79637 -3.72672
upperback 4.16129 -9.32772 6.36184
thorax 1.44816 -4.92266 9.32247
lowerneck -21.2695 -3.52317 -12.2833
upperneck 34.1098 -2.04188 3.33586
head 15.9108 -2.10025 3.12979
rclavicle -7.15625e-014 3.89618e-014
rhumerus 9.22422 38.8991 -51.6133
rradius 75.8913
rwrist 30.7889
rhand -39.526 7.603
rfingers 7.12502
rthumb -12.5108 -22.0025
lclavicle -7.15625e-014 3.89618e-014
lhumerus 90.145 -51.755 23.5533
lradius 39.0842
lwrist -43.5861
lhand -45.3783 48.9703
lfingers 7.12502
lthumb -18.1476 78.1437
rfemur -36.5889 14.9484 3.83192
rtibia 32.8172
rfoot -6.76826 6.04049
rtoes 1.82627
lfemur -13.8441 11.307 -22.3176
ltibia 18.7751
lfoot -8.49665 30.8554
ltoes -20.7277
2128
root -1.07352 17.8671 0.491329 12.2476 -25.8937 5.91975
lowerback 8.0346 -6.82208 -3.49737
upperback 4.32121 -9.35225 6.29547
thorax 1.70715 -4.94078 9.07461
lowerneck -21.6792 -3.23863 -11.885
upperneck 34.0347 -1.64461 3.17151
head 15.915 -1.90188 3.06649
rclavicle 9.62118e-014 -7.15625e-015
rhumerus 9.24497 38.0838 -52.1366
rradius 75.4692
rwrist 32.3246
rhand -39.8134 5.86781
rfingers 7.12502
rthumb -12.7879 -23.7205
lclavicle 9.62118e-014 -7.15625e-015
lhumerus 90.145 -51.755 23.5533
lradius 39.0842
lwrist -43.5861
lhand -45.3783 48.9703
lfingers 7.12502
lthumb -18.1476 78.1437
rfemur -36.7604 15.2188 3.68642
rtibia 32.8199
rfoot -6.70693 6.27646
rtoes 1.97699
lfemur -13.7307 11.6772 -22.4512
ltibia 18.735
lfoot -8.25963 30.8339
ltoes -21.2316
2129
root -1.07851 17.8692 0.506643 12.1661 -26.3204 6.12358
lowerback 8.38124 -6.9008 -3.66137
upperback 4.09501 -9.46338 6.48886
thorax 1.36389 -4.98966 9.44546
lowerneck -21.7241 -2.86969 -11.8506
upperneck 33.9619 -0.994032 2.87814
head 15.8229 -1.66977 3.05773
rclavicle -2.70347e-014 7.31528e-014
rhumerus 9.24592 37.973 -52.1018
rradius 75.0486
rwrist 33.6753
rhand -39.9016 3.70199
rfingers 7.12502
rthumb -12.873 -25.881
lclavicle -2.70347e-014 7.31528e-014
lhumerus 90.145 -51.755 23.5533
lradius 39.0842
lwrist -43.5861
lhand -45.3783 48.9703
lfingers 7.12502
lthumb -18.1476 78.1437
rfemur -36.8761 15.4246 3.42862
rtibia 32.865
rfoot -6.71645 6.38411
rtoes 2.73034
lfemur -13.6117 12.095 -22.6939
ltibia 18.6992
lfoot -8.11482 30.6502
ltoes -21.7469
2130
root -1.08349 17.8681 0.520891 12.01 -26.7202 6.38902
lowerback 8.51612 -6.93865 -3.97146
upperback 4.06901 -9.54319 6.71652
thorax 1.37582 -5.04751 9.88934
lowerneck -21.9461 -2.51583 -11.8952
upperneck 33.8556 -0.322729 2.63977
head 15.7583 -1.42752 3.08996
rclavicle -6.99722e-014 4.77083e-014
rhumerus 9.53982 37.6268 -51.8148
rradius 74.5049
rwrist 35.0348
rhand -40.45 1.52259
rfingers 7.12502
rthumb -13.4015 -28.0264
lclavicle -6.99722e-014 4.77083e-014
lhumerus 90.145 -51.755 23.5533
lradius 39.0842
lwrist -43.5861
lhand -45.3783 48.9703
lfingers 7.12502
lthumb -18.1476 78.1437
rfemur -36.9336 15.6208 3.12387
rtibia 32.9218
rfoot -6.7254 6.52118
rtoes 4.05835
lfemur -13.4743 12.3375 -22.9503
ltibia 18.7069
lfoot -7.95739 30.5673
ltoes -22.3339
2131
root -1.08679 17.8691 0.537122 11.895 -27.1195 6.62196
lowerback 8.59468 -6.96057 -4.14867
upperback 4.0272 -9.58984 6.89719
thorax 1.36416 -5.08161 10.2018
lowerneck -22.1267 -2.11889 -11.931
upperneck 33.7693 0.362235 2.50561
head 15.692 -1.16385 3.16869
rclavicle 4.92986e-014 -1.43125e-014
rhumerus 9.67957 37.3088 -51.6059
rradius 73.9887
rwrist 35.7396
rhand -41.3048 -1.60888
rfingers 7.12502
rthumb -14.2254 -31.1017
lclavicle 4.92986e-014 -1.43125e-014
lhumerus 90.145 -51.755 23.5533
lradius 39.0842
lwrist -43.5861
lhand -45.3783 48.9703
lfingers 7.12502
lthumb -18.1476 78.1437
rfemur -37.0231 15.7967 2.8407
rtibia 32.962
rfoot -6.70633 6.68088
rtoes 4.13806
lfemur -13.3895 12.5511 -23.1908
ltibia 18.7701
lfoot -8.13881 30.4946
ltoes -22.2478
2132
root -1.08915 17.8728 0.553085 11.8594 -27.5103 6.74337
lowerback 8.64449 -7.0126 -4.25113
upperback 4.00715 -9.67272 7.10699
thorax 1.39252 -5.13593 10.4997
lowerneck -22.3444 -1.63821 -11.8547
upperneck 33.6311 1.15235 2.31462
head 15.6003 -0.846786 3.22228
rclavicle -9.30312e-014 -4.13472e-014
rhumerus 9.89821 37.1825 -51.3401
rradius 73.4926
rwrist 35.9685
rhand -42.1075 -5.75301
rfingers 7.12502
rthumb -14.9987 -35.1898
lclavicle -9.30312e-014 -4.13472e-014
lhumerus 90.145 -51.755 23.5533
lradius 39.0842
lwrist -43.5861
lhand -45.3783 48.9703
lfingers 7.12502
lthumb -18.1476 78.1437
rfemur -37.1579 15.9669 2.6708
rtibia 32.9825
rfoot -6.67478 6.77947
rtoes 4.54038
lfemur -13.3855 12.741 -23.3373
ltibia 18.876
lfoot -8.24775 30.4567
ltoes -21.8809
